# xmcd CD database file
#
# Track frame offsets:
#	150
#	28165
#	125943
#	180553
#	224515
#	302434
#
# Disc length: 4378 seconds
#
# Revision: 0
# Processed by: cddbd v1.5.2PL0 Copyright (c) Steve Scherf et al.
# Submitted via: CDex 1.51
#
DISCID=55111806
DTITLE=John Coltrane - Anthology
DYEAR=2007
DGENRE=Jazz
TTITLE0=Everytime we say Goodbye
TTITLE1=Impressions (2)
TTITLE2=On Green Dolphin Street
TTITLE3=Walkin' (2)
TTITLE4=So What
TTITLE5=Round about Midnight
EXTD=YEAR: 2007
EXTT0=
EXTT1=
EXTT2=
EXTT3=
EXTT4=
EXTT5=
PLAYORDER=
